<svg xmlns="http://www.w3.org/2000/svg" width="349.36" height="55.28" viewBox="0 0 349.36 55.28"><defs><style>.cls-1{fill:#002067;}.cls-2{fill:#007cf4;}</style></defs><title>ToolsGroup-logo-color</title><g id="Layer_2" data-name="Layer 2"><g id="Layer_1-2" data-name="Layer 1"><path class="cls-1" d="M137.66,44.09a14.71,14.71,0,0,1-10.72-4.27,14.25,14.25,0,0,1-4.34-10.56,14.1,14.1,0,0,1,4.34-10.5,15.45,15.45,0,0,1,21.45,0,14.15,14.15,0,0,1,4.39,10.5,14.3,14.3,0,0,1-4.39,10.56A14.72,14.72,0,0,1,137.66,44.09Zm0-7.08a7.56,7.56,0,0,0,5.54-2.19,7.47,7.47,0,0,0,2.22-5.56,7.47,7.47,0,0,0-2.22-5.56A7.71,7.71,0,0,0,130,29.26a7.63,7.63,0,0,0,2.17,5.56A7.54,7.54,0,0,0,137.66,37Z"/><path class="cls-1" d="M104.41,44.09a14.71,14.71,0,0,1-10.72-4.27,14.25,14.25,0,0,1-4.34-10.56,14.1,14.1,0,0,1,4.34-10.5,15.45,15.45,0,0,1,21.45,0,14.15,14.15,0,0,1,4.39,10.5,14.3,14.3,0,0,1-4.39,10.56A14.72,14.72,0,0,1,104.41,44.09Zm0-7.08a7.54,7.54,0,0,0,7.76-7.75A7.85,7.85,0,0,0,98.88,23.7a7.63,7.63,0,0,0-2.17,5.56,7.63,7.63,0,0,0,2.17,5.56A7.54,7.54,0,0,0,104.41,37Z"/><path class="cls-1" d="M86.46,22.18H80.71V33.87c0,2.85,2,3.07,5.71,2.9a.7.7,0,0,1,.74.69v5.21a.71.71,0,0,1-.64.7c-9.62.93-13.17-2-13.17-9.5V8.05a.69.69,0,0,1,.7-.69h6a.69.69,0,0,1,.69.69v7.17h5.75a.7.7,0,0,1,.7.7v5.57A.69.69,0,0,1,86.46,22.18Z"/><path class="cls-1" d="M156.48,42.81V3a.7.7,0,0,1,.7-.7h6a.7.7,0,0,1,.69.7V42.81a.69.69,0,0,1-.69.69h-6A.69.69,0,0,1,156.48,42.81Z"/><path class="cls-1" d="M180.75,26.28c4.16.85,9.58,2.81,9.53,8.82A7.7,7.7,0,0,1,187,41.78a13.94,13.94,0,0,1-8.16,2.31c-5.6,0-9.49-2-11.67-6.08a.71.71,0,0,1,.28-.94l5.15-2.84a.66.66,0,0,1,.93.33c.95,2,2.69,3,5.31,3s3.94-.79,3.94-2.42-2.29-2.36-5.2-3.09C173.33,31,168,29.2,168,23.36a7.75,7.75,0,0,1,3.08-6.51,13.19,13.19,0,0,1,18.2,2.9.7.7,0,0,1-.26,1l-5,2.69a.7.7,0,0,1-.93-.27,4.66,4.66,0,0,0-4.23-2.27c-1.89,0-3.31.9-3.31,2.31S177.84,25.55,180.75,26.28Z"/><path class="cls-2" d="M235.84,20.25c1.28-3.37,4.37-5.16,7.94-5.37a.7.7,0,0,1,.73.7v6.61a.7.7,0,0,1-.75.69,8.6,8.6,0,0,0-5.3,1.41c-1.77,1.18-2.62,3.09-2.62,5.79V42.81a.69.69,0,0,1-.7.69h-6a.69.69,0,0,1-.69-.69V16.12a.69.69,0,0,1,.69-.7h6a.7.7,0,0,1,.7.7Z"/><path class="cls-2" d="M261.89,44.29A14.74,14.74,0,0,1,251.16,40a14.23,14.23,0,0,1-4.33-10.56A14.11,14.11,0,0,1,251.16,19a15.47,15.47,0,0,1,21.45,0,14.17,14.17,0,0,1,4.4,10.5A14.29,14.29,0,0,1,272.61,40,14.71,14.71,0,0,1,261.89,44.29Zm0-7.08A7.54,7.54,0,0,0,267.42,35a7.44,7.44,0,0,0,2.23-5.56,7.46,7.46,0,0,0-2.23-5.56,8.09,8.09,0,0,0-11.07,0,7.68,7.68,0,0,0-2.16,5.56A7.66,7.66,0,0,0,256.35,35,7.56,7.56,0,0,0,261.89,37.21Z"/><path class="cls-2" d="M336.05,19a14.59,14.59,0,0,1,4.11,10.5A14.71,14.71,0,0,1,336.05,40a13,13,0,0,1-9.81,4.27c-4,0-7.08-1.35-9.25-4.1V54a.69.69,0,0,1-.69.69h-6a.69.69,0,0,1-.7-.69V16.12a.7.7,0,0,1,.7-.7h6a.69.69,0,0,1,.69.7v2.61c2.17-2.75,5.25-4.09,9.25-4.09A13,13,0,0,1,336.05,19ZM324.87,37.38a7.66,7.66,0,0,0,7.93-7.92,7.76,7.76,0,0,0-7.93-7.92,7.52,7.52,0,0,0-5.65,2.25A7.65,7.65,0,0,0,317,29.46a7.89,7.89,0,0,0,2.23,5.73A7.7,7.7,0,0,0,324.87,37.38Z"/><path class="cls-2" d="M200.14,43.49A.7.7,0,0,1,201,44a6.26,6.26,0,0,0,2,3.12,6.75,6.75,0,0,0,4.51,1.48,7.9,7.9,0,0,0,5.62-1.85c1.31-1.24,2-3.22,2-6v-2a7.85,7.85,0,0,1-2.84,2.48,10.29,10.29,0,0,1-5.09,1.11,13.32,13.32,0,0,1-5.27-1,12.5,12.5,0,0,1-4.2-2.85,13.39,13.39,0,0,1-2.78-4.3,14.16,14.16,0,0,1-1-5.44,14.12,14.12,0,0,1,3.7-9.64,12.61,12.61,0,0,1,4.17-3A13.14,13.14,0,0,1,207.15,15a10.42,10.42,0,0,1,5.38,1.19,7.18,7.18,0,0,1,2.72,2.63V16.25a.7.7,0,0,1,.7-.7h6a.7.7,0,0,1,.7.7V40.57a18.62,18.62,0,0,1-.84,5.56,12.7,12.7,0,0,1-2.64,4.67,13,13,0,0,1-4.63,3.25,17.12,17.12,0,0,1-6.83,1.23,16.43,16.43,0,0,1-5.36-.83,14.47,14.47,0,0,1-4.2-2.22A11.55,11.55,0,0,1,195.28,49,10.68,10.68,0,0,1,194,45.77a.69.69,0,0,1,.51-.8Zm8.34-7.65a6.43,6.43,0,0,0,4.83-1.94,7.1,7.1,0,0,0,1.89-5.18,6.86,6.86,0,0,0-2-5.16,6.61,6.61,0,0,0-4.75-1.91,7.39,7.39,0,0,0-2.69.48,6.26,6.26,0,0,0-2.18,1.43,6.63,6.63,0,0,0-1.44,2.25,7.73,7.73,0,0,0-.52,2.91,7,7,0,0,0,1.91,5.21A6.66,6.66,0,0,0,208.48,35.84Z"/><path class="cls-2" d="M293,43.83a12.5,12.5,0,0,1-12.58-12.39V16.12a.69.69,0,0,1,.69-.7h6.06a.7.7,0,0,1,.7.7V31.44a5.13,5.13,0,0,0,10.26,0V16.12a.69.69,0,0,1,.69-.7h6.07a.69.69,0,0,1,.69.7V31.44A12.5,12.5,0,0,1,293,43.83Z"/><path class="cls-1" d="M52.41,50.69a.67.67,0,0,1-.67.67H50.06C22.68,51.36.37,28.69,0,.68A.67.67,0,0,1,.68,0h6a.66.66,0,0,1,.66.66C7.67,24.64,26.71,44,50.06,44h1.68a.67.67,0,0,1,.67.66Z"/><path class="cls-2" d="M21.39,46.82a.39.39,0,0,1-.05.7,48.72,48.72,0,0,1-19,3.84H.67A.67.67,0,0,1,0,50.69v-6A.67.67,0,0,1,.67,44H2.35A41.41,41.41,0,0,0,14.7,42.16a.65.65,0,0,1,.61.14A47.18,47.18,0,0,0,21.39,46.82Z"/><path class="cls-2" d="M52.4.69A51.78,51.78,0,0,1,36.8,37.22a.81.81,0,0,1-.81.21,21.39,21.39,0,0,1-6-3.06.51.51,0,0,1,0-.81A44.44,44.44,0,0,0,45.08.66.67.67,0,0,1,45.74,0h6A.67.67,0,0,1,52.4.69Z"/><path class="cls-1" d="M41,.69A40.37,40.37,0,0,1,26.57,31.08a.84.84,0,0,1-1,0,25.08,25.08,0,0,1-4.41-4.39.51.51,0,0,1,.1-.72A33.05,33.05,0,0,0,33.7.66.66.66,0,0,1,34.36,0h6A.68.68,0,0,1,41,.69Z"/><path class="cls-1" d="M6.57,32.76a39,39,0,0,0,4.53,5.56.39.39,0,0,1-.17.67,37.74,37.74,0,0,1-9,1.08H.67A.67.67,0,0,1,0,39.4v-6a.67.67,0,0,1,.67-.67H1.92a31.87,31.87,0,0,0,4-.26A.6.6,0,0,1,6.57,32.76Z"/><path class="cls-2" d="M345.25,15.42a4.16,4.16,0,1,1-4.1,4.16A4.13,4.13,0,0,1,345.25,15.42Zm0,7.58a3.43,3.43,0,1,0-3.38-3.42A3.39,3.39,0,0,0,345.25,23Zm.64-2.82a1.25,1.25,0,0,0,.9-1.29,1.3,1.3,0,0,0-1.34-1.37h-1.61v4.15h.81V20.24h.27l1,1.43h1Zm-.44-1.86a.56.56,0,0,1,0,1.12h-.78V18.32Z"/></g></g></svg>